<svg xmlns="http://www.w3.org/2000/svg" width="200" height="40" viewBox="0 0 200 40"><path fill="#f91100" d="M18.823 2.45l5.758 11.667 12.877 1.87-9.316 9.08 2.2 12.824-11.516-6.052L7.308 37.89l2.2-12.822-9.317-9.08 12.876-1.87zm40.265 0l5.757 11.667 12.875 1.87-9.316 9.08 2.2 12.824-11.516-6.052-11.516 6.054 2.2-12.822-9.316-9.08 12.874-1.87zm40.264 0l5.758 11.667 12.875 1.87-9.317 9.08 2.2 12.824-11.516-6.052-11.515 6.054 2.2-12.822-9.317-9.08 12.874-1.87zm40.266 0l5.757 11.667 12.875 1.87-9.316 9.08 2.2 12.824-11.516-6.052-11.516 6.054 2.2-12.822-9.317-9.08 12.875-1.87zm40.265 0l5.758 11.667 12.877 1.87-9.316 9.08 2.2 12.824-11.516-6.052-11.515 6.054 2.2-12.822-9.32-9.08 12.876-1.87z"/></svg>