<svg xmlns="http://www.w3.org/2000/svg" width="484.951" height="484.951" viewBox="0 0 484.951 484.951"><style>.grey{fill:#999;}</style><path class="grey" d="M118.505 115.332h6.938c10.544 0 19.09-8.55 19.09-19.09V23.85c0-10.54-8.546-19.09-19.09-19.09h-6.938c-10.543 0-19.09 8.55-19.09 19.09v72.39c0 10.542 8.547 19.092 19.09 19.092zm244.868-.472h6.938c10.545 0 19.09-8.55 19.09-19.092v-72.39c0-10.54-8.545-19.09-19.09-19.09h-6.936c-10.545 0-19.092 8.55-19.092 19.09v72.39c.003 10.542 8.55 19.09 19.093 19.09zm90.543-71.302H404.92v57.21c0 19.083-15.525 29.61-34.607 29.61h-6.938c-19.084 0-34.61-15.527-34.61-34.61v-52.21h-168.71V96.24c0 19.084-15.526 34.61-34.61 34.61h-6.938c-19.083 0-34.608-15.526-34.608-34.61V43.558H31.035C13.923 43.558 0 57.48 0 74.595v375.03c0 17.114 13.923 31.037 31.036 31.037h422.88c17.113 0 31.035-13.923 31.035-31.037V74.595c.004-17.113-13.92-31.037-31.033-31.037zm0 406.067H31.036V166.412h422.886l.016 283.212h-.022zM258.498 261.41h55.727c2.21 0 4-1.79 4-4v-48.255c0-2.21-1.79-4-4-4h-55.727c-2.21 0-4 1.79-4 4v48.255c0 2.21 1.79 4 4 4zm90.945 0h55.727c2.21 0 4-1.79 4-4v-48.255c0-2.21-1.79-4-4-4h-55.727c-2.21 0-4 1.79-4 4v48.255c0 2.21 1.79 4 4 4zm-272.833 79h55.727c2.21 0 4-1.79 4-4v-48.256c0-2.21-1.79-4-4-4H76.61c-2.208 0-4 1.79-4 4v48.256c0 2.21 1.792 4 4 4zm90.945 0h55.726c2.21 0 4-1.79 4-4v-48.256c0-2.21-1.79-4-4-4h-55.724c-2.21 0-4 1.79-4 4v48.256c0 2.21 1.79 4 4 4zm90.945 0h55.725c2.21 0 4-1.79 4-4v-48.256c0-2.21-1.79-4-4-4H258.5c-2.21 0-4 1.79-4 4v48.256c0 2.21 1.79 4 4 4zm90.943 0h55.727c2.21 0 4-1.79 4-4v-48.256c0-2.21-1.79-4-4-4h-55.727c-2.21 0-4 1.79-4 4v48.256c0 2.21 1.79 4 4 4zm-217.106 22.744H76.612c-2.21 0-4 1.79-4 4v48.256c0 2.21 1.79 4 4 4h55.726c2.21 0 4-1.79 4-4v-48.256c0-2.21-1.792-4-4-4zm90.945 0h-55.726c-2.21 0-4 1.79-4 4v48.256c0 2.21 1.79 4 4 4h55.726c2.21 0 4-1.79 4-4v-48.256c0-2.21-1.79-4-4-4zm90.945 0H258.5c-2.21 0-4 1.79-4 4v48.256c0 2.21 1.79 4 4 4h55.727c2.21 0 4-1.79 4-4v-48.256c0-2.21-1.79-4-4-4zm90.943 0h-55.727c-2.21 0-4 1.79-4 4v48.256c0 2.21 1.79 4 4 4h55.727c2.21 0 4-1.79 4-4v-48.256c0-2.21-1.79-4-4-4z"/></svg>