<svg xmlns="http://www.w3.org/2000/svg" width="334" height="30" viewBox="0 0 334 30"><path fill="#5F0519" d="M264.045 5.824c3.264.08 5.212 1.167 6.87 2.828.712.715 1.646 2.02.44 3.025-1.775 1.478-2.676-.288-3.753-1.058-1.334-.954-3.938-1.576-5.937-.79-1.88.74-3.18 2.213-3.805 4.206-1.253 4.008.656 7.646 3.387 8.83 4.816 2.085 8.73-1.6 10.646-4.305.43-.603 1.337-1.766 1.548-2.482.01-.223.016-.443.025-.665.105-.573.213-1.147.316-1.722.626-2.102 1.605-3.997 3.116-5.212 1.215-.976 2.562-1.768 4.318-2.213 4.41-1.12 8.646.94 10.476 3.246.91 1.153 1.63 2.433 2.106 4.034.335 1.115.565 2.787.32 4.18-.14.78-.183 1.44-.394 2.114-1.036 3.31-3.325 5.535-6.55 6.664-1.652.578-4.41.686-6.206.146-2.312-.69-4.104-1.878-5.396-3.59-.434-.574-.705-1.286-1.152-1.87-.008.02-.018.034-.023.05-.354.46-.703.92-1.056 1.38-1.065 1.333-2.7 2.613-4.345 3.343-.938.415-1.922.735-3.04.98-4.242.943-8.476-1.31-10.157-3.54-.845-1.115-1.464-2.443-1.89-3.98-1.463-5.292 1.177-10.046 4.242-11.977 1.065-.67 2.307-1.11 3.73-1.426.473-.06.947-.116 1.423-.173.25-.006.495-.015.74-.023zm40.5.393c3.43-.063 6.404 1.268 7.826 3.197.043-.033.08-.066.125-.1.25-.51.942-.93 1.397-1.253 2.313-1.64 6.115-2.5 9.468-1.18 2.802 1.105 4.806 3.148 5.472 6.395.27 1.326.123 3.084.123 4.598v5.778c0 1.23.045 2.25-.64 2.78-1.226.95-2.966.286-3.237-1.082-.01-.778-.016-1.558-.023-2.335v-5.928c0-1.062.104-2.317-.12-3.195-.407-1.585-1.362-2.543-2.627-3.272-.702-.405-1.888-.833-3.115-.64-2.564.407-4.234 1.72-4.78 4.132-.268 1.17-.075 2.8-.075 4.106v5.09c0 .825.104 1.878-.147 2.483-.246.6-.79.935-1.52 1.056-1.11.183-1.89-.472-2.135-1.18-.162-.466-.1-1.19-.1-1.796v-7.598c0-.72.063-1.522-.072-2.14-.59-2.72-3.732-5.218-7.26-3.836-1.6.625-2.794 1.813-3.264 3.565-.203.75-.124 1.81-.124 2.73v5.14c0 2.14.433 4.408-1.2 4.99-.326.118-.894.187-1.302.077-.595-.16-1.06-.543-1.274-1.084-.227-.56-.123-1.538-.123-2.287v-4.77c0-1.808-.195-3.96.146-5.533.63-2.895 2.415-4.926 4.856-6 .747-.33 1.565-.57 2.452-.762.425-.044.85-.092 1.275-.142zm-21.07 3.516l-.736.074-1.377.344c-1.796.71-3.058 2.128-3.654 4.035-1.236 3.95.724 7.13 3.286 8.435.737.374 1.974.864 3.19.663 2.82-.47 4.622-1.613 5.593-3.91.21-.502.35-1.066.464-1.647.276-1.37-.056-2.957-.44-3.933-.985-2.488-2.854-4.074-6.33-4.06zm-33.215 12.64c3.037-.062 3.167 3.87.416 4.328-1.572.264-2.93-1.342-2.38-2.9.235-.666.793-1.155 1.497-1.352l.467-.074z"/><path fill="#ED3325" d="M139.53 12.59h14.3V5.115c0-1.05-.163-2.52.247-3.197.405-.67 1.49-1.193 2.527-.762 1.595.664 1.128 3.52 1.128 5.73V21.22c0 1.633.296 4.637-.417 5.56-.857 1.106-2.704.847-3.287-.32-.36-.72-.197-2.17-.197-3.196V16.13h-14.3v7.134c0 1.037.163 2.488-.195 3.22-.493 1.007-2.312 1.36-3.14.396-.824-.963-.516-3.783-.515-5.557V6.91c0-2.2-.485-5.112 1.127-5.753 1.016-.404 2.074.117 2.477.786.41.68.245 2.147.245 3.197v7.45zm82.226-11.582c2.766-.035 2.21 2.55 2.207 5.188v15.098c0 1.246.225 4.04-.146 4.92-.24.566-.815.98-1.496 1.105-.44.08-.863-.064-1.127-.174-.41-.172-.78-.463-.957-.86-.384-.866-.17-3.52-.17-4.77V6.982c0-1.398-.273-4.24.27-5.115.332-.54.798-.587 1.42-.86zm-33.116 5.73c2.164-.022 4.572-.416 5.225 1.156.087.21.226.528.17.86-.367 2.27-2.858 1.768-5.395 1.746v7.772c0 1.484-.108 3.13.343 4.18.45 1.045 1.733 1.605 3.288 1.205 1.25-.322 4.287-1.803 4.93-2.656-.27-.705-.447-1.49-.61-2.31-.19-.94-.2-2.32-.025-3.27.784-4.275 2.793-7.003 6.378-8.434 4.745-1.893 10.026.016 12.29 2.926.623.803 1.19 1.717 1.593 2.73.513 1.287 1.358 4.134.37 5.386-.825 1.04-2.767.672-4.393.934l-11.97.86c1.15 3.032 4.525 5.032 8.707 3.714.85-.268 1.635-.69 2.28-1.18.35-.268.617-.63 1.055-.812 1.334-.553 2.498.352 2.698 1.45.284 1.56-1.922 2.817-2.82 3.343-3.692 2.166-9.083 1.58-12.168-.64-.517-.37-1.153-.813-1.472-1.376l-.073.074c-.442.31-.883.623-1.325.936-1.13.71-2.37 1.29-3.73 1.77-.69.243-1.433.276-2.255.42-1.056.18-2.58-.2-3.287-.47-1.65-.633-2.72-1.59-3.36-3.22-.582-1.48-.565-3.448-.564-5.534V10.5c-2.13.03-3.878.18-4.197-1.622-.087-.49.11-.917.27-1.18.713-1.18 2.08-.98 3.925-.96-.028-2.707-.57-5.274 1.84-5.68.414-.068.796.09 1.054.198 1.668.697 1.245 3.182 1.226 5.482zm-18.668-.196c5.295-.07 8.45 2.36 10.032 6 .69 1.586 1.29 4.01.834 6.345-.176.9-.387 1.746-.71 2.508-1.486 3.48-4.233 5.422-8.562 6.098-1.646.258-3.385-.158-4.54-.564-3.28-1.156-5.5-3.54-6.45-7.035-.32-1.174-.548-2.994-.27-4.426.153-.79.297-1.57.563-2.263 1.116-2.896 3.023-4.93 5.91-6.05.626-.242 1.31-.384 2.036-.516.386-.035.77-.067 1.155-.1zm65.718 0c3.672-.055 6.74.627 8.34 2.656.634.804 1.612 2.17.687 3.37-.436.562-1.53.998-2.453.614-.91-.38-1.022-1.625-1.84-2.14-2.336-1.47-8.596-1.092-9.076 1.672-.27 1.553 1.23 1.754 2.354 1.97.862.163 1.826.095 2.772.244 2.406.383 4.857.362 6.6 1.38.63.366 1.247.82 1.667 1.397 1.18 1.62 1.21 4.533.124 6.27-1.27 2.03-3.648 2.888-6.45 3.394-.84.152-1.964.21-2.846.072-.582-.05-1.162-.098-1.74-.146-2.28-.447-4.26-1.076-5.448-2.605-.538-.694-1.626-2.35-.907-3.54.387-.643 1.48-1.27 2.526-.836 1.03.426.977 1.83 1.84 2.434 2.33 1.632 9.39 1.595 9.934-1.524.264-1.514-1.147-1.822-2.208-2.064-.926-.215-1.977-.156-3.018-.322-2.607-.414-5.105-.434-6.92-1.57-1.678-1.057-2.872-3.772-1.813-6.37.572-1.403 1.673-2.344 2.92-3.074.936-.548 2.098-.848 3.31-1.106.547-.063 1.094-.12 1.643-.178zm-29.12 3.54l-.784.1c-.482.138-.965.277-1.447.417-2.263.925-3.587 2.76-3.95 5.604 4.406-.31 8.813-.623 13.22-.934-1.04-3.17-2.82-5.198-7.04-5.187zm-36.328.172l-.735.074-1.3.32c-1.874.73-3.14 2.162-3.753 4.155-1.208 3.935.874 7.283 3.483 8.41.74.32 1.87.785 3.042.592 2.8-.467 4.595-1.61 5.566-3.887.23-.537.368-1.14.49-1.77.267-1.365-.084-2.926-.465-3.862-1.005-2.47-2.845-4.046-6.33-4.032z"/><g><path d="M2.17 14.432c0-1.568-.05-2.833-.1-3.996h1.998l.102 2.1h.05c.91-1.493 2.353-2.38 4.352-2.38 2.96 0 5.186 2.506 5.186 6.226 0 4.4-2.682 6.577-5.565 6.577-1.62 0-3.036-.71-3.77-1.925H4.37v6.654h-2.2V14.43zm2.2 3.263c0 .33.052.633.102.91.405 1.545 1.746 2.607 3.34 2.607 2.352 0 3.718-1.924 3.718-4.73 0-2.455-1.29-4.555-3.643-4.555-1.518 0-2.935 1.088-3.365 2.758-.076.277-.152.607-.152.91v2.1zm23.278-1.24c0 4.53-3.137 6.503-6.097 6.503-3.312 0-5.867-2.43-5.867-6.3 0-4.098 2.682-6.502 6.072-6.502 3.517 0 5.894 2.556 5.894 6.3zm-9.714.127c0 2.682 1.543 4.706 3.72 4.706 2.124 0 3.718-2 3.718-4.756 0-2.075-1.037-4.706-3.668-4.706-2.632 0-3.77 2.43-3.77 4.756zm13.234-6.146l1.62 6.223c.353 1.364.682 2.63.91 3.894h.076c.278-1.24.683-2.555 1.088-3.87l2-6.25h1.87l1.898 6.122c.455 1.468.81 2.758 1.088 3.998h.076c.203-1.24.53-2.53.936-3.973l1.746-6.145h2.2L42.73 22.68h-2.025l-1.872-5.844c-.43-1.367-.784-2.58-1.088-4.023h-.05c-.304 1.468-.684 2.732-1.114 4.05L34.61 22.68h-2.024L28.89 10.436h2.278zm18.724 6.526c.05 3.01 1.973 4.25 4.2 4.25 1.594 0 2.555-.278 3.39-.632l.38 1.594c-.785.354-2.126.76-4.074.76-3.77 0-6.02-2.48-6.02-6.174s2.175-6.604 5.742-6.604c3.998 0 5.06 3.518 5.06 5.77 0 .455-.05.81-.076 1.036h-8.602zm6.527-1.594c.023-1.417-.584-3.618-3.088-3.618-2.252 0-3.238 2.075-3.416 3.618h6.502zm4.91-1.113c0-1.442-.025-2.682-.1-3.82h1.947l.076 2.403h.1c.558-1.645 1.898-2.682 3.39-2.682.254 0 .43.025.633.076v2.1c-.228-.05-.455-.076-.76-.076-1.567 0-2.68 1.19-2.984 2.86-.05.303-.1.657-.1 1.036v6.527H61.33v-8.426zm9.26 2.707c.05 3.01 1.973 4.25 4.2 4.25 1.594 0 2.555-.278 3.39-.632l.38 1.594c-.785.354-2.126.76-4.074.76-3.77 0-6.02-2.48-6.02-6.174s2.175-6.604 5.742-6.604c3.998 0 5.06 3.518 5.06 5.77 0 .455-.05.81-.075 1.036H70.59zm6.528-1.594c.025-1.417-.582-3.618-3.086-3.618-2.252 0-3.238 2.075-3.416 3.618h6.502zm15.485-10.65v14.8c0 1.09.025 2.327.102 3.162h-2l-.1-2.125h-.05c-.685 1.366-2.177 2.403-4.176 2.403-2.96 0-5.24-2.505-5.24-6.224-.023-4.073 2.506-6.578 5.49-6.578 1.873 0 3.138.886 3.694 1.873h.05V4.715h2.228zM90.376 15.42c0-.28-.025-.658-.1-.938-.33-1.416-1.545-2.58-3.214-2.58-2.303 0-3.67 2.023-3.67 4.73 0 2.48 1.216 4.53 3.62 4.53 1.49 0 2.857-.987 3.263-2.657.075-.305.1-.607.1-.962V15.42zm11.186 7.26c.05-.835.1-2.074.1-3.162v-14.8h2.202v7.69h.05c.785-1.366 2.202-2.252 4.175-2.252 3.034 0 5.185 2.53 5.16 6.25 0 4.376-2.76 6.552-5.49 6.552-1.77 0-3.188-.683-4.1-2.302h-.075l-.102 2.023h-1.922zm2.302-4.91c0 .28.05.558.102.81.43 1.545 1.72 2.607 3.34 2.607 2.327 0 3.718-1.898 3.718-4.706 0-2.452-1.265-4.552-3.643-4.552-1.516 0-2.933 1.037-3.39 2.732-.05.252-.125.556-.125.91v2.2zm12.83-7.334l2.68 7.234c.28.81.583 1.77.785 2.506h.05c.227-.734.48-1.67.783-2.556l2.43-7.185h2.352l-3.34 8.728c-1.593 4.2-2.68 6.35-4.2 7.665-1.087.962-2.175 1.342-2.73 1.443l-.557-1.87c.556-.178 1.29-.53 1.946-1.09.607-.48 1.366-1.34 1.872-2.48.102-.227.178-.403.178-.53 0-.126-.05-.304-.152-.58l-4.528-11.284h2.427z"/></g></svg>