<svg xmlns="http://www.w3.org/2000/svg" width="280" height="79.73" viewBox="0 0 280 79.73"><g id="Layer_1"><path fill="#0464B1" d="M46.363 69.25c42.193-4.944 84.738-7.528 127.284-7.763h2.18c15.4 0 30.8.306 46.203.99.35 0 .77 0 1.123.073 4.715.154 9.492.31 14.205.765.352 0 1.192.305 1.55.148.487-.148.91-.456 1.334-.684.562 0 1.055.08 1.616.08.562.073 1.12.145 1.688.3-.424-.455-.916-.837-1.407-1.14l-.212-.23c-1.27-.684-2.742-1.063-4.148-1.444-1.827-.456-3.73-.84-5.557-1.142-2.953-.46-5.906-.763-8.79-1.064-10.34-.99-20.603-1.222-30.94-1.222-5.557 0-11.184.077-16.737.23-20.955.454-41.982 1.44-62.87 3.27-17.93 1.522-35.792 3.428-53.584 5.938-7.595 1.063-15.19 2.28-22.785 3.73 3.305-.304 6.54-.53 9.846-.836zm5.214-60.975h.166l.33-.082.912.496 1.654 1.9.495.994.58 1.654.577 1.904.084.166.248 1.818-.248 1.82v.827l-.33 2.154-.415 1.9-.082.415-.25.082-.247.99-.164.58-.083.994-.497.414-.082.66-.414.993-.33.827.08.33-.164.497-.58.742-.082 1.076-.33.582-.332.99.083.58-.414.247-.165.497-.496.826H51l-.248.414.083.332-.166.248.165.744-.496.912-.084.166-.166.494-.33 1.075-.167 1.158v1.075l-.163.91.248.994.413.908.746.332h3.64l.995-.247 1.574-.166h1.24l.25.246 1.074.083 1.738-.165.248-.166h1.076l.745.082.58-.332.58-.165 6.7.66 1.49.33 1.738.17 1.325.162-.084.25-.663.414h-.164l-.166.25-.662.248-.745.082-.91.332-.496.497-1.16.412-1.075.414-.993.58-.333.083-.58.25-1.654.41-.578-.082-.58.33h-.58l-.496.33h-1.324l-.91.25-3.144.328-3.808.248h-1.49l-1.075-.163-1.325-.164-1.737-.498-1.573-.743-.745-.58-.165-.25-.415-.398-.248-.83-.164-.166-.662-1.486-.25-.25-.082-.577-.247-.66-.084-.497-.082-1.076-.082-.248.083-.663-.164-1.157.165-3.725.084-.41.332-2.153.083-1.57.082-.33.497-3.23v-.167l.247-1.568.662-3.147.08-.248.084-.662.166-.66.66-3.06.58-2.982.25-.33.082-.744.828-2.234.248-.993.413-1.574.167-.165.165-1.16.083-.164.167-.74.66.246-.164-.746.084-.166.412.248.247-.082-.003-.835zM92.95 31.197l-.413-.084-1.737.66-2.4 1.658-1.324 1.073v-4.218l1.075-.745 2.07-1.158 1.738-.494h.745l.91.99.166.414-.416 1.324 1.16-1.16h.165l.744-.08 1.076.247.33.33.332.497.248.33.166 1.41-.25.743.167.992-1.076 3.475-.91 2.896v.248l-.58 1.24-.33 2.153-.084.91-.248.084.083.91-.25.66.083.58-.163.744v.58l.25.33.247 1.407.414.58.166.413.58.496.66.163.498.084v.164l-.744.25-.25.248H95.6l-.663.498-.082.33h-.25l-.992-.083-.663-.325-1.49-1.41-.496-.988-.496-1.077v-.33l-.332-1.24-.497-2.48.08-2.73.167-1.987h-.166v.166l-1.24 1.655-1.16 1.323-.247.33v-5.96l.413-.415 3.56-3.974 1.904-2.643zm-5.874 3.308l-1.74 1.41-1.9 2.15-1.408 1.818-.828 2.234v.746l.66.414 2.65-2.4 2.565-2.646v5.958l-.332.58-.496.578-.166.25-.412.41-.992.91-1.738 1.16-1.82.742-.91-.082-1.82-.58-1.408-.66-.58-.83-.414-.743-.165-1.323.167-1.488.25-1.903.992-2.152.247-.33.994-1.325 2.483-2.564 3.972-3.063 2.15-1.487v4.215zm25.404-17.21l.827-.084.33-.08.413.248.58.58.745.992.413 1.24.166 1.078-.58 2.895v.497l.663.166 1.323.083 2.318.16 2.813.167 2.98.25 1.16.496.165.166-.083.162-1.24.333-.91.495h-.497l-.25.334-1.57.164-.083.25-.25.162-1.156.083-.91.332-2.484.826-2.233.91-.83.497-1.075.497-.745 1.324-.083.828-.25.58-.33.908v.58l-.083.328-.33.665-.332 1.737-.083.663-.33 1.405-.25 1.158v.91l-.165.248.08.165.167 1.573.083.167 1.075.497.91-.085 1.077-.58.25-.25h.247l.083.168-.33.332v.66l-.167.497-.25.742-.578.58-.745 1.077-1.075.91-.826.25-.663.66-1.903-.58-1.738-.91-1.158-1.24-.662-1.652-.58-2.648.166-2.646.993-5.3.58-2.397-1.075.25-2.73-.083-1.324-.58-.58-.496-.246-.165-.33-.746-.25-.25.25-.66-.167-.414.497-.746 1.074-.413 2.484-1.24 2.814-.744 1.57-.33.25-.082 1.903-4.633 1.49-2.732.826-1.076.744-.083zm19.94 13.24h-.166l-1.24.247-1.656.83-1.82.99v-3.23h.082l3.558-1.735 1.655-.578 1.82.163.415.41.248.664-.165.248.33.827v1.158l-.33.745-.08.332-.084.33-.662 1.076-.083.33-.33.494-.58.58-.33.332-.827.99-1.076 1.16-.91.826-.083.332-.58.25-.165.08-.497.415-.58.33-.745.578v-3.8l1.408-.994 1.158-1.24.993-1.073 1.323-2.07zm-4.882 18.204v-3.725l.746.08.25.25h3.64l2.73-.25 2.48-.413 1.243-.33h.166v.166l-1.325.906-1.24.66v.25l-.58.165-.745.082-.166.33-1.16.5h-.412l-.167.328-.413.083-.413-.083-.083.083h-.58l-.25.33-1.158.167-.745.166-1.075.248-.663-.082-.083.083v.004zm0-16.137l-.33.165-2.153 1.9-.99 1.16-1.408 1.984h1.075l1.985-.826 1.82-1.076v3.805l-.744.578-.662.333-.165.248-2.315.992-1.16.166-.166.828.083.332.33.412 1.325.745 2.068.494 1.406.168v3.723h-.992l-.25.246-.412-.082h-.496l-.25-.083h-.743l-.166-.163h-.415l-.58-.166-.164-.083-.082-.167-.084-.08-.662.08-.165-.08-.33.08-.415-.33-.745-.494-.91-.83-.745-.99-.91-1.738-.084-.66.083-.248-.333-1.077v-.166l-.166-.247.083-.414V39.39l.993-1.573 1.158-1.736.91-.907.746-.992.58-.497 3.227-2.646 2.316-1.655v3.226l.005-.005z"/><path fill="#0464B1" d="M165.684 12.745l-.248.825-.496.663-.746.496-.828.5-.824.493-.827.58-1.24.824-1.16.497-.99.744-.744.58-.91.247-.414.414-.66.332-.58.166-.496.328-.414.166-.414.415-.744.413-.166.332-.908.658-1.075 1.076-.828.747-.328.33-.746.744-.496.664-.66.33-.83.747-.578 1.488-.248 1.322.164 1.24.332.662 1.902 1.324.414.248 1.49.826.91.58.743.414.498.164 1.238.745.25.33 1.49.663.91.743 1.406.912 1.49 1.405.496.497.66.58.83.745.658.824.746 1.075.413 1.078.164.99-.08.827.08.663-.08.495-.418 1.16-1.322 1.242-1.404.66-.58.33-.664.167-1.16.336-1.573.248-1.738.084-2.233-.082-1.075-.083-1.077-.08h-.58l-1.486-.25h-.664l-.33-.164h-.332l-.084-.083-.248.083-.247-.248-.166.082v.495l-.247-.162h-.248l-.33-.497-.33-.167-.168.165-.412-.084v.084l-.332.082-.08-.083-.333.082-.33-.25h-.166l-.248-.165-.164.166V50.8l.082-.083.66-.165 1.077-.165.827-.083.58-.083.99-.167 1.16-.33.085-.084 1.735-.25.66-.082.83-.08 1.24-.085.33-.166 1.24-.083.33-.083.417-.246.91-.082h.494l.25-.165.66-.085h.415l.413-.163.33.08.412-.165.58-.578h.58l.334-.332.494-.414.082-.494.082-.58-.25-.332v-.494l-.246-.33-.164-.416-.334-.246-.246-.25-.58-.412-.58-.496-.91-.66-.91-.333-1.24-.745-.83-.413-.578-.25-1.16-.744-.58-.08-.49-.413h-.25l-.994-.332-.332-.247-1.406-.332-1.738-.496-1.324-.166-.164-.246-1.075-.248-.83-.495-1.074-.91-.83-.58-1.158-1.157-.745-.993-.33-.83-.248-.91-.164-2.4.414-.494.25-.58-.083-.66.497-1.16.58-.66.496-.91 1.324-1.49.825-.907 1.24-.913.993-1.076.91-.827 2.316-1.82 1.16-.744 1.24-1.156 1.82-1.162.415-.166.58-.578L155.672 12l1.82-1.242.58-.742.33-.083.414-.495.58-.25.496-.578h.414l.58-.25h.66l1.16.168 1.734.91.412 1.076.414.992.166.495.252.745zm11.336 2.813l.828-.083.33-.083.332.25.662.575.662.99.414 1.243.248 1.076-.58 2.896-.082.496.662.166 1.324.08 2.316.167 2.896.167 2.98.25 1.073.497.248.163-.084.083-1.323.416-.91.494h-.5l-.246.33-1.57.165-.08.25-.25.163-1.075.083-.99.334-2.4.743-2.235.992-.826.41-1.16.58-.743 1.323v.83l-.25.58-.33.905-.083.578-.084.332-.243.663-.416 1.74v.66l-.413 1.405-.165 1.16-.08.91-.165.247.164.165.163 1.573.084.165 1.073.498.914-.084.994-.58.33-.25h.25v.167l-.25.33-.083.662-.166.496-.165.743-.66.578-.746 1.075-.992.91-.826.248-.662.66-1.985-.576-1.656-.91-1.24-1.24-.664-1.654-.496-2.648.082-2.65 1.078-5.294.494-2.398-.994.25-2.812-.084-1.326-.578-.578-.498-.166-.164-.33-.745-.25-.247.167-.745-.085-.332.498-.743 1.076-.414 2.398-1.243 2.895-.745 1.49-.33.334-.082 1.9-4.632 1.487-2.732.828-1.075.745-.072zM199.61 28.3l-.415-.083-1.736.746-2.4 1.654-1.325 1.076V27.39l1.076-.745 2.07-1.158 1.737-.497h.66l.996 1.075.164.33-.414 1.325 1.158-1.158h.167l.743-.083 1.077.247.248.33.414.58.164.246.248 1.406-.332.744.25.993-1.075 3.474-.908 2.897v.25l-.58 1.24-.33 2.232-.084.83-.248.08.082.91-.248.66.083.58-.164.746-.085.578.332.33.248 1.407.416.58.167.41.58.5.658.164.415.166v.167l-.662.164-.247.25-.33.082-.58.414-.08.332h-.25l-1.075-.083-.662-.332-1.408-1.404-.495-.996-.5-1.076v-.33l-.327-1.238-.498-2.483V39.8l.246-1.984h-.163v.166l-1.242 1.653-1.24 1.323-.163.415v-5.958l.413-.498 3.56-3.97 1.897-2.646h-.003zm-5.876 3.393l-1.736 1.405-1.904 2.068-1.406 1.903-.826 2.15-.084.827.744.328 2.648-2.396 2.564-2.565v5.958l-.33.58-.496.495-.166.247-.412.498-.994.825-1.738 1.16-1.82.742-.992-.083-1.736-.58-1.406-.576-.578-.91-.414-.743-.164-1.325.084-1.487.328-1.9.996-2.154.246-.33.992-1.324 2.48-2.562 3.89-3.062 2.232-1.486v4.297h-.002zm18.29-5.96l1.073-.08.498-.083.163.33h.164l.498.912.166 1.488-.166.247.166.165-.166 1.24-.91 2.4-.413.91-.332 1.323-.248.91-.082.082-.248 1.572v1.075l.744-.663 1.822-2.648 1.983-3.062.91-1.24.084-.33.66-.745.745-1.325 1.075-.66.248-.33 1.322-.165.332-.085 1.487.91.25.083.743.66.084.333.332.25.41.41.083 1.16.082.165.084.826-.167.912.082.988-.326 1.574v.664l-.333.497-.168 1.405-.167.25-.33 1.158-.164.826-.667.58-.494 1.157-.333.993-.662 1.324-.495 1.077-.248 1.322-.498.332-.083.414-.33.166.25.33-.415 1.49-.497.826.168.58h-.25l-.165.165v.578l-.33 1.572-.163.578-.412.91-.416 1.158-.165.828-.498 1.322-.414.166v.497l-.33.246.084.25-.332.58-.494.908-.497.662-.248.828-.992 1.074-.742 1.16-.663.494-.414.166-.58.497-1.49.498h-.33l-1.075.248-.248.167-.993.082-1.078-.417-.58-.164-.66.082-.91-.498-.993-.247-1.158-.91-.825-.743-.334-.744-.163-.496.082-.25v-.33l-.165-.662-.25-.33.084-.497-.085-.25.166-.412.25.496.08-.25v-1.07l.335.166.164 1.325.245.084.332-.166.578.413.166.334 1.16.412 3.478-.165 1.32-.33 1.406-.662.578-.33.994-.25.91-.91.993-1.652.993-3.727.992-6.04v-1.32l.166-.99.083-.747.082-1.322-1.82 1.49-.414-.25-1.736.664-1.404-.163-.333-.25-1.078-.58-1.158-.99-.742-1.656-.334-1.32-.248-1.657.166-1.735.328-1.74 1.572-4.218 1.82-3.312.99-.99.34-.26zm27.636-2.727l.578-.25h1.322l1.246.332.164.08v.167l.49 1.075.087.745-.25.578-1.16.913h-.827l-1.735 1.238-1.82 1.572-1.655 1.904-.164.746.084.248.164.58 3.227 3.062 1.573 1.82 1.076 1.9v.166l.08.25.25.743v.082l-.167.663v.247l-.332.828-.66.498-.91.743-2.068.414-.662.083-1.653.33-.414.082-.91.167-3.72.576-3.81.33-.166-.33-.496.083-.163-.25-.332.085-1.404.083-.497.083-.33-.25.164-.74.744-.58 1.24-.744 3.147-.993 3.228-.663 4.8-.826.743-.247.164-.165-.825-.992-.91-.826-.33-.248-.334-.498-1.155-.91-.58-.33v-.166l-.992-.827-.247-.33-1.16-2.15-.33-2.235.33-1.736.5-.995 1.65-1.737 1.655-1.325 1.656-.908 2.81-1.244z"/><path fill="#FFF" d="M45.394 67.797c42.193-4.944 84.738-7.528 127.284-7.763h2.18c15.4 0 30.8.306 46.203.99.352 0 .772 0 1.124.074 4.715.153 9.492.31 14.205.764.35 0 1.19.305 1.548.15.488-.15.912-.457 1.334-.686.562 0 1.056.08 1.617.08.56.074 1.12.147 1.687.3-.425-.454-.916-.836-1.408-1.14l-.21-.23c-1.27-.683-2.744-1.062-4.15-1.443-1.827-.456-3.728-.838-5.557-1.142-2.953-.46-5.905-.762-8.79-1.063-10.34-.99-20.603-1.222-30.94-1.222-5.557 0-11.184.077-16.736.23-20.955.454-41.982 1.442-62.87 3.27-17.93 1.522-35.792 3.428-53.584 5.938-7.595 1.063-15.19 2.28-22.785 3.73 3.305-.304 6.54-.53 9.846-.836zm5.214-60.975h.166l.33-.082.912.496 1.654 1.9.496.995.58 1.655.577 1.904.084.165.248 1.818-.248 1.82v.827l-.33 2.154-.415 1.9-.083.415-.25.08-.248.99-.165.58-.083.995-.497.414-.082.66-.414.992-.33.827.08.33-.163.496-.58.743-.082 1.075-.33.582-.332.99.083.58-.414.247-.166.497-.496.827h-.08l-.247.414.083.333-.166.258.166.745-.496.912-.083.166-.166.495-.33 1.074-.166 1.158v1.075l-.163.91.25.994.412.908.745.332h3.64l.995-.247 1.573-.166h1.24l.25.247 1.074.083 1.737-.164.248-.166H61.7l.746.083.58-.332.58-.165 6.7.66 1.49.33 1.738.17 1.325.16-.085.25-.663.415h-.165l-.166.25-.66.247-.746.082-.91.332-.496.496-1.16.413-1.075.413-.993.58-.332.083-.58.25-1.654.412-.578-.083-.58.33h-.58l-.496.332h-1.323l-.91.248-3.144.33-3.808.246h-1.49l-1.075-.16-1.324-.166-1.737-.498-1.574-.744-.745-.58-.164-.25-.415-.412-.247-.83-.164-.166-.663-1.487-.25-.25-.082-.576-.247-.66-.084-.497-.082-1.076-.083-.248.082-.664-.165-1.157.165-3.726.083-.412.332-2.152.083-1.57.083-.33.497-3.23v-.165l.248-1.568.662-3.147.082-.248.083-.662.166-.66.66-3.06.58-2.982.25-.33.083-.744.828-2.233.25-.992.412-1.574.166-.164.165-1.16.083-.164.167-.742.66.247-.164-.75.083-.166.412.248.247-.082-.004-.828zM91.98 29.744l-.412-.084-1.737.66-2.4 1.658-1.323 1.072v-4.218l1.075-.745 2.07-1.157 1.737-.495h.744l.91.99.166.414-.415 1.323 1.16-1.16h.165l.745-.08 1.076.247.33.33.333.497.248.33.167 1.41-.25.743.167.993-1.076 3.474-.91 2.896v.248l-.58 1.24-.33 2.154-.084.91-.248.084.083.91-.25.658.082.58-.164.745v.58l.25.33.247 1.408.414.578.165.415.58.497.66.163.498.084v.164l-.744.25-.25.247h-.25l-.662.498-.082.33h-.25l-.992-.083-.663-.325-1.49-1.408-.495-.99-.496-1.077v-.33l-.333-1.24-.497-2.48.082-2.73.166-1.985h-.166v.166l-1.242 1.655-1.16 1.323-.246.33v-5.962l.413-.415 3.56-3.972 1.904-2.644zm-5.873 3.308l-1.74 1.41-1.9 2.15-1.408 1.82-.83 2.23v.746l.66.414 2.65-2.4 2.566-2.646v5.957l-.332.58-.496.578-.166.25-.413.413-.993.91-1.738 1.157-1.82.743-.91-.082-1.82-.58-1.41-.66-.58-.83-.413-.74-.165-1.325.166-1.488.25-1.903.992-2.15.248-.33.994-1.326 2.482-2.564 3.972-3.062 2.15-1.487v4.217zm25.404-17.21l.828-.084.33-.08.413.247.58.58.746.992.413 1.24.165 1.078-.58 2.895v.497l.663.166 1.323.083 2.32.162 2.812.166 2.98.25 1.158.496.166.166-.083.163-1.24.332-.91.495h-.497l-.25.334-1.57.165-.083.25-.25.163-1.156.083-.91.333-2.484.825-2.233.91-.828.496-1.076.497-.745 1.325-.082.828-.25.58-.33.908v.58l-.083.33-.33.664-.332 1.737-.083.664-.33 1.406-.25 1.157v.91l-.164.248.08.165.167 1.573.083.167 1.075.497.91-.085 1.078-.58.25-.25h.247l.083.168-.33.332v.66l-.167.498-.25.74-.577.58-.745 1.078-1.075.91-.826.25-.663.66-1.903-.58-1.737-.91-1.158-1.24-.662-1.653-.58-2.648.166-2.646.992-5.3.58-2.397-1.076.25-2.73-.083-1.324-.58-.58-.496-.247-.165-.33-.747-.25-.25.25-.66-.167-.414.497-.747 1.074-.412 2.483-1.24 2.814-.744 1.57-.33.25-.082 1.903-4.633 1.49-2.73.827-1.077.744-.082zm19.94 13.24h-.165l-1.24.247-1.656.83-1.82.99v-3.23h.08l3.56-1.736 1.654-.578 1.82.164.415.412.247.663-.165.247.33.827v1.157l-.33.745-.082.332-.083.33-.662 1.076-.083.33-.33.494-.58.58-.332.336-.826.99-1.076 1.16-.91.827-.083.332-.58.25-.165.08-.496.414-.58.33-.745.58v-3.81l1.407-.993 1.158-1.238.993-1.074 1.323-2.067zm-4.88 18.204v-3.724l.745.08.25.25h3.64l2.73-.25 2.48-.413 1.243-.33h.166v.165l-1.325.907-1.24.66v.25l-.58.164-.746.083-.166.33-1.16.5h-.412l-.167.327-.414.083-.413-.083-.083.083h-.58l-.25.33-1.157.167-.745.166-1.075.248-.663-.08-.082.083v.003zm0-16.136l-.33.165-2.154 1.9-.99 1.16-1.408 1.984h1.075l1.985-.827 1.82-1.076v3.806l-.744.577-.662.333-.166.248-2.315.993-1.16.166-.165.827.083.332.33.41 1.325.746 2.068.495 1.407.17v3.722h-.992l-.25.246-.412-.083h-.496l-.25-.083h-.743l-.166-.163h-.415l-.58-.167-.164-.083-.083-.167-.084-.08-.662.08-.164-.08-.33.08-.415-.33-.744-.494-.91-.83-.745-.99-.91-1.74-.083-.66.083-.247-.332-1.077v-.165l-.166-.246.082-.414v-1.65l.993-1.574 1.158-1.736.91-.907.746-.993.58-.498 3.228-2.646 2.316-1.654v3.225l.005-.007z"/><path fill="#BCD146" d="M164.715 11.292l-.248.825-.496.663-.745.496-.828.5-.824.494-.827.58-1.242.824-1.157.497-.992.745-.744.58-.908.247-.415.414-.66.333-.58.165-.496.328-.413.166-.414.414-.744.413-.167.332-.908.657-1.075 1.076-.83.75-.33.33-.745.743-.495.664-.66.33-.83.746-.578 1.49-.248 1.32.164 1.24.332.662 1.9 1.325.415.248 1.49.827.91.58.743.414.498.165 1.238.745.25.33 1.49.662.91.743 1.406.912 1.49 1.405.496.497.66.58.83.744.658.824.746 1.076.412 1.078.164.99-.08.827.08.662-.08.495-.416 1.16-1.322 1.242-1.404.66-.58.33-.664.167-1.158.328-1.573.248-1.738.083-2.234-.082-1.073-.083-1.077-.078h-.58l-1.486-.25h-.664l-.33-.164h-.332l-.084-.083-.248.083-.248-.248-.166.082v.495l-.248-.162h-.248l-.33-.497-.33-.167-.167.167-.412-.084v.083l-.332.082-.08-.083-.334.082-.33-.25h-.166l-.248-.165-.164.166v-.166l.082-.083.66-.166 1.077-.165.827-.084.58-.083.99-.168 1.16-.33.085-.084 1.735-.247.66-.083.83-.08 1.24-.085.33-.166 1.24-.084.33-.083.417-.247.91-.082h.494l.25-.165.66-.086h.414l.414-.163.33.083.412-.166.58-.578h.58l.333-.333.495-.414.082-.495.083-.58-.25-.332v-.486l-.247-.33-.164-.416-.335-.246-.246-.25-.58-.412-.58-.496-.91-.66-.91-.333-1.24-.745-.83-.413-.578-.248-1.16-.746-.58-.08-.492-.413h-.25l-.992-.332-.332-.247-1.406-.332-1.738-.496-1.324-.166-.164-.246-1.075-.248-.83-.495-1.074-.91-.83-.58-1.158-1.157-.744-.993-.33-.83-.25-.91-.163-2.4.414-.494.25-.58-.083-.66.497-1.16.58-.66.496-.91 1.324-1.49.825-.907 1.24-.913.992-1.076.91-.827 2.317-1.82 1.16-.744 1.24-1.156 1.82-1.162.415-.166.58-.578 1.738-1.32 1.82-1.242.58-.743.33-.083.413-.495.58-.25.496-.578h.414l.58-.25h.66l1.16.168 1.736.91.412 1.076.413.994.166.495.252.732zm11.336 2.813l.83-.083.33-.083.33.25.663.575.662.99.414 1.242.247 1.076-.58 2.896-.082.494.662.166 1.324.08 2.316.167 2.896.166 2.98.25 1.074.497.248.163-.084.083-1.322.416-.91.494h-.5l-.246.33-1.572.165-.08.25-.25.164-1.074.083-.99.333-2.4.744-2.236.996-.826.412-1.16.578-.743 1.324v.83l-.25.58-.33.906-.083.577-.084.332-.244.662-.417 1.738v.662l-.412 1.405-.165 1.158-.08.91-.166.248.163.165.164 1.573.084.166 1.073.498.914-.084.994-.58.33-.248h.25v.166l-.25.33-.083.662-.166.497-.165.744-.66.58-.746 1.074-.993.91-.826.248-.66.66-1.986-.577-1.655-.91-1.24-1.24-.665-1.654-.495-2.647.082-2.648 1.077-5.295.493-2.4-.994.25-2.813-.083-1.325-.578-.578-.5-.166-.163-.33-.745-.25-.248.166-.745-.084-.332.498-.743 1.076-.415 2.398-1.242 2.895-.745 1.49-.33.333-.082 1.9-4.63 1.487-2.733.828-1.074.746-.078zm22.59 12.74l-.413-.082-1.735.745-2.4 1.654-1.323 1.076v-4.303l1.074-.745 2.07-1.158 1.735-.497h.66l.995 1.075.164.33-.415 1.325 1.158-1.158h.166l.743-.083 1.077.248.248.33.413.58.167.247.248 1.404-.332.745.25.992-1.075 3.474-.91 2.896v.25l-.58 1.24-.33 2.232-.083.83-.248.08.082.91-.25.662.085.58-.164.745-.083.58.332.33.247 1.406.416.578.166.412.58.5.658.163.415.165v.167l-.662.164-.247.248-.33.083-.58.414-.082.333h-.247l-1.076-.083-.662-.332-1.407-1.404-.495-.995-.5-1.077v-.33l-.327-1.238-.498-2.483v-2.73l.246-1.985h-.164v.166l-1.242 1.654-1.24 1.322-.163.414v-5.958l.414-.498 3.557-3.97 1.9-2.646-.006.004zm-5.874 3.395l-1.736 1.405-1.903 2.068-1.405 1.903-.826 2.15-.084.83.744.326 2.647-2.396 2.563-2.564v5.958l-.33.58-.496.495-.166.247-.412.498-.993.825-1.74 1.16-1.818.742-.994-.082-1.735-.58-1.407-.577-.578-.91-.414-.744-.164-1.325.084-1.487.328-1.902.996-2.152.246-.33.993-1.324 2.48-2.563 3.89-3.06 2.232-1.487v4.298h-.004zm18.29-5.96l1.073-.08.497-.083.164.33h.165l.498.912.166 1.488-.167.247.166.164-.167 1.24-.91 2.4-.414.91-.333 1.322-.248.91-.083.082-.248 1.572v1.076l.743-.663 1.822-2.65 1.984-3.06.91-1.24.083-.33.66-.746.745-1.324 1.075-.66.248-.33 1.323-.166.332-.085 1.486.91.25.083.745.66.084.332.33.25.412.41.084 1.16.082.165.084.826-.166.913.082.988-.327 1.573v.665l-.33.497-.17 1.405-.165.25-.33 1.158-.164.827-.665.58-.494 1.156-.33.992-.663 1.324-.494 1.077-.248 1.323-.498.332-.084.414-.33.165.25.33-.415 1.49-.497.826.17.58h-.25l-.166.166v.58l-.33 1.57-.164.58-.412.91-.416 1.157-.163.828-.5 1.323-.413.166v.496l-.332.247.084.25-.333.58-.494.908-.498.663-.247.828-.992 1.076-.743 1.158-.664.495-.415.165-.58.497-1.49.498h-.33l-1.074.248-.247.166-.993.082-1.078-.416-.58-.164-.66.083-.91-.5-.992-.246-1.158-.91-.825-.742-.334-.745-.164-.496.08-.25v-.33l-.163-.66-.25-.33.084-.498-.083-.25.166-.412.248.496.083-.25V57.12l.334.166.164 1.325.248.084.332-.166.578.413.166.334 1.157.412 3.48-.165 1.32-.33 1.406-.662.58-.33.994-.25.91-.91.992-1.652.994-3.727.992-6.04v-1.326l.166-.99.082-.747.082-1.322-1.82 1.49-.414-.25-1.736.663-1.406-.163-.332-.25-1.078-.58-1.157-.99-.743-1.657-.334-1.32-.248-1.657.166-1.734.33-1.74 1.57-4.218 1.822-3.312.99-.99.337-.246zm27.635-2.728l.58-.25h1.32l1.246.332.164.08v.167l.492 1.076.086.745-.25.58-1.16.912h-.828l-1.735 1.24-1.82 1.57-1.654 1.902-.163.746.084.248.165.58 3.227 3.062 1.572 1.82 1.076 1.902v.165l.08.25.25.742v.08l-.166.664v.247l-.332.83-.66.497-.912.743-2.067.414-.662.083-1.653.33-.414.082-.91.166-3.72.576-3.81.33-.165-.33-.496.083-.164-.25-.332.084-1.405.082-.497.083-.33-.25.164-.742.744-.58 1.242-.743 3.146-.993 3.228-.663 4.8-.826.743-.247.163-.164-.826-.992-.91-.826-.33-.248-.333-.498-1.156-.91-.58-.33v-.166l-.99-.827-.248-.33-1.158-2.152-.33-2.234.33-1.736.498-.994 1.652-1.737 1.654-1.325 1.656-.908 2.81-1.242z"/><text transform="translate(220.5 17.364)" fill="#FFF" font-family="'MyriadPro-Regular'" font-size="12">Beta</text></g></svg>