<svg id="Capa_1" xmlns="http://www.w3.org/2000/svg" width="143" height="100" viewBox="-4.5 -3.5 143 100"><path fill="#006AC7" d="M56.573 67.25c-2.16-.342-2.208-6.28-2.208-6.28s6.345-6.28 7.728-14.727c3.72 0 6.017-8.98 2.297-12.138C64.544 30.78 69.17 8 45.75 8S26.956 30.78 27.11 34.106c-3.72 3.16-1.422 12.138 2.298 12.138 1.382 8.446 7.727 14.727 7.727 14.727s-.05 5.94-2.208 6.282C27.972 68.358 2 79.812 2 92.375h87.5c0-12.562-25.972-24.017-32.927-25.124z"/><path fill="#006AC7" d="M106.268 53.97c-1.815-.29-1.856-5.28-1.856-5.28s5.333-5.28 6.496-12.38c3.125 0 5.058-7.546 1.93-10.202.132-2.795 4.02-21.942-15.666-21.942S81.375 23.313 81.505 26.108c-3.126 2.656-1.196 10.203 1.93 10.203 1.163 7.1 6.496 12.38 6.496 12.38s-.04 4.99-1.855 5.28c-3.456.548-12.5 4.14-19.314 9.163 8.098 3.96 19.42 11.952 19.42 11.952h45.762c0-10.558-21.83-20.187-27.674-21.116z" opacity=".6"/></svg>