<svg xmlns="http://www.w3.org/2000/svg" height="480" width="640" version="1"><defs><clipPath id="a"><path fill-opacity=".67" d="M0 0h640v480H0z"/></clipPath></defs><g fill-rule="evenodd" clip-path="url(#a)"><path stroke-width="1.251" fill="#fff" d="M-20 0h720v480H-20z"/><path stroke-width="1.251" fill="#df0000" d="M-20 0h720v240H-20z"/><path d="M146.05 40.227c-33.243 7.622-57.944 32.237-64.927 65.7-9.488 45.47 20.124 89.992 65.687 99.49-46.03 13.124-93.59-13.333-106.594-58.933-12.996-45.6 13.46-93.16 59.063-106.162 16.005-4.565 30.743-4.594 46.77-.095z" stroke-width=".492" fill="#fff"/><path stroke-width=".651" fill="#fff" d="M132.905 109.806l4.894 15.115-12.93-9.226L112 125.01l4.78-15.14-12.83-9.353 15.874-.137 4.93-15.104 5.03 15.066 15.886.025zM150.464 161.866l4.894 15.115-12.93-9.226-12.866 9.315 4.78-15.14-12.83-9.353 15.874-.137 4.93-15.104 5.03 15.066 15.886.025zM208.89 161.49l4.893 15.116-12.93-9.228-12.866 9.315 4.78-15.14-12.83-9.352 15.874-.135 4.933-15.103 5.03 15.067 15.885.024zM226.318 109.853l4.894 15.115-12.93-9.228-12.866 9.315 4.78-15.14-12.83-9.352 15.874-.137 4.93-15.103 5.03 15.066 15.886.023zM180.06 75.597l4.895 15.115-12.93-9.228L159.16 90.8l4.78-15.14-12.83-9.353 15.873-.137 4.93-15.103 5.03 15.066 15.886.025z"/></g></svg>