<svg xmlns="http://www.w3.org/2000/svg" width="200" height="40" viewBox="0 0 200 40"><path fill="#3985C6" d="M18.823 2.45l5.758 11.667 12.876 1.87-9.316 9.08 2.2 12.824-11.517-6.053L7.308 37.89l2.2-12.822-9.317-9.08 12.875-1.87zM59.088 2.45l5.757 11.667 12.875 1.87-9.316 9.08 2.2 12.824-11.516-6.053-11.516 6.054 2.2-12.822-9.316-9.08 12.874-1.87zM99.352 2.45l5.758 11.667 12.875 1.87-9.317 9.08 2.2 12.824-11.516-6.053-11.515 6.054 2.2-12.822-9.317-9.08 12.874-1.87zM139.618 2.45l5.757 11.667 12.875 1.87-9.316 9.08 2.2 12.824-11.516-6.053-11.516 6.054 2.2-12.822-9.317-9.08 12.875-1.87zM179.883 2.45l5.758 11.667 12.876 1.87-9.316 9.08 2.2 12.824-11.517-6.053-11.515 6.054 2.2-12.822-9.318-9.08 12.875-1.87z"/></svg>