<?xml version="1.0" encoding="utf-8"?>
<!-- Generator: Adobe Illustrator 16.0.4, SVG Export Plug-In . SVG Version: 6.00 Build 0)  -->
<!DOCTYPE svg PUBLIC "-//W3C//DTD SVG 1.1//EN" "http://www.w3.org/Graphics/SVG/1.1/DTD/svg11.dtd">
<svg version="1.1" xmlns="http://www.w3.org/2000/svg" xmlns:xlink="http://www.w3.org/1999/xlink" x="0px" y="0px" width="280px"
	 height="79.73px" viewBox="0 0 280 79.73" enable-background="new 0 0 280 79.73" xml:space="preserve">
<g id="Layer_2" display="none">
	
		<image display="inline" overflow="visible" width="92" height="68" xlink:href="../../logo/blue.png"  transform="matrix(3.2779 0 0 1.4017 -6.0684 -5.6165)">
	</image>
</g>
<g id="Layer_1">
	<path fill="#0464B1" d="M46.363,69.25c42.193-4.944,84.738-7.528,127.284-7.763h2.181c15.399,0,30.8,0.306,46.202,0.99
		c0.351,0,0.771,0,1.123,0.073c4.715,0.154,9.492,0.31,14.205,0.765c0.352,0,1.192,0.305,1.55,0.148
		c0.487-0.148,0.911-0.456,1.334-0.684c0.562,0,1.055,0.08,1.616,0.08c0.562,0.074,1.121,0.146,1.688,0.3
		c-0.424-0.454-0.916-0.836-1.407-1.14l-0.211-0.23c-1.27-0.683-2.742-1.062-4.148-1.443c-1.827-0.456-3.729-0.839-5.557-1.142
		c-2.953-0.46-5.906-0.763-8.789-1.064c-10.342-0.99-20.604-1.222-30.94-1.222c-5.558,0-11.185,0.077-16.738,0.23
		c-20.955,0.454-41.982,1.441-62.87,3.27c-17.93,1.522-35.792,3.428-53.584,5.938c-7.595,1.063-15.19,2.28-22.785,3.729
		C39.822,69.782,43.056,69.557,46.363,69.25L46.363,69.25z M51.577,8.275h0.166l0.33-0.082l0.912,0.496l1.654,1.9l0.496,0.995
		l0.58,1.654l0.577,1.904l0.084,0.166l0.248,1.818l-0.248,1.82v0.827l-0.33,2.154l-0.415,1.9l-0.083,0.415l-0.25,0.082l-0.247,0.99
		l-0.165,0.58l-0.083,0.994l-0.497,0.414l-0.082,0.661l-0.414,0.992l-0.33,0.827l0.08,0.33l-0.164,0.497l-0.58,0.743l-0.082,1.076
		l-0.33,0.582l-0.332,0.99l0.083,0.58l-0.414,0.247l-0.166,0.497l-0.496,0.826H51l-0.248,0.414l0.083,0.332l-0.166,0.248
		l0.166,0.744l-0.496,0.912l-0.083,0.166l-0.166,0.494l-0.33,1.075l-0.167,1.158v1.075l-0.163,0.91l0.248,0.994l0.413,0.908
		l0.745,0.332h3.641l0.994-0.247l1.573-0.166h1.24l0.25,0.247l1.074,0.083l1.738-0.164l0.248-0.166h1.076l0.745,0.083l0.58-0.332
		l0.58-0.165l6.7,0.661l1.49,0.33l1.738,0.168l1.325,0.163l-0.084,0.25l-0.663,0.414h-0.165l-0.166,0.25l-0.662,0.247l-0.745,0.082
		l-0.91,0.332l-0.496,0.497l-1.16,0.413l-1.075,0.414l-0.993,0.58l-0.332,0.083l-0.58,0.25l-1.654,0.412l-0.578-0.083l-0.58,0.329
		h-0.58l-0.496,0.332h-1.323l-0.91,0.248l-3.144,0.329l-3.808,0.248h-1.49l-1.075-0.163l-1.324-0.165l-1.737-0.498l-1.573-0.743
		l-0.745-0.58l-0.165-0.25L46.2,49.237l-0.248-0.83l-0.164-0.166l-0.662-1.487l-0.25-0.25l-0.082-0.577l-0.247-0.661l-0.084-0.496
		l-0.082-1.076l-0.083-0.248l0.083-0.663l-0.165-1.157l0.165-3.725l0.083-0.412l0.332-2.152l0.083-1.57l0.083-0.33l0.497-3.229
		V30.04l0.248-1.568l0.662-3.147l0.082-0.248l0.083-0.662l0.166-0.66l0.66-3.06l0.58-2.982l0.25-0.33l0.082-0.744l0.828-2.233
		l0.248-0.993l0.413-1.574l0.166-0.164l0.165-1.159l0.083-0.165l0.167-0.742l0.66,0.247l-0.164-0.746l0.084-0.166l0.412,0.248
		l0.247-0.082L51.577,8.275z M92.95,31.197l-0.413-0.084l-1.737,0.66l-2.4,1.658l-1.324,1.072v-4.218l1.075-0.745l2.07-1.158
		l1.737-0.494h0.745l0.91,0.99l0.166,0.414l-0.415,1.324l1.16-1.16h0.165l0.745-0.08l1.076,0.247l0.33,0.33l0.332,0.497l0.248,0.33
		l0.166,1.41l-0.25,0.743l0.167,0.992l-1.076,3.475l-0.91,2.896v0.248l-0.58,1.24l-0.33,2.153l-0.084,0.91l-0.248,0.084l0.083,0.908
		l-0.25,0.66l0.083,0.58l-0.164,0.745v0.58l0.25,0.33l0.247,1.407l0.414,0.578l0.166,0.414l0.58,0.496l0.66,0.164l0.498,0.084v0.164
		l-0.744,0.25l-0.25,0.247H95.6l-0.663,0.498l-0.082,0.33h-0.25l-0.992-0.083l-0.663-0.325l-1.49-1.409l-0.496-0.989l-0.496-1.077
		v-0.33l-0.332-1.24l-0.497-2.481l0.082-2.73l0.166-1.986h-0.166v0.166l-1.242,1.655l-1.16,1.323l-0.246,0.33V38.23l0.413-0.415
		l3.56-3.974L92.95,31.197L92.95,31.197z M87.076,34.505l-1.74,1.41l-1.9,2.15l-1.408,1.818L81.2,42.117v0.746l0.66,0.414l2.65-2.4
		l2.565-2.646v5.957l-0.332,0.58l-0.496,0.578l-0.166,0.25l-0.413,0.411l-0.992,0.91l-1.738,1.158l-1.82,0.743l-0.91-0.082
		l-1.82-0.58l-1.408-0.66l-0.58-0.83l-0.414-0.743L75.821,44.6l0.166-1.488l0.25-1.903l0.992-2.151l0.248-0.33l0.994-1.325
		l2.482-2.564l3.972-3.062l2.15-1.487L87.076,34.505L87.076,34.505z M112.48,17.294l0.827-0.083l0.33-0.08l0.413,0.247l0.58,0.58
		l0.745,0.992l0.413,1.24l0.166,1.078l-0.58,2.895v0.497l0.663,0.166l1.323,0.083l2.318,0.162l2.813,0.166l2.98,0.25l1.158,0.496
		l0.166,0.166l-0.083,0.163l-1.24,0.333l-0.91,0.495h-0.497l-0.25,0.334l-1.57,0.164l-0.083,0.25l-0.25,0.162l-1.156,0.083
		l-0.91,0.332l-2.484,0.826l-2.233,0.91l-0.828,0.496l-1.076,0.497l-0.745,1.324l-0.083,0.828l-0.25,0.579l-0.33,0.909v0.58
		l-0.083,0.328l-0.33,0.665l-0.332,1.737l-0.083,0.663l-0.33,1.405l-0.25,1.158v0.91l-0.164,0.248l0.08,0.165l0.167,1.573
		l0.083,0.167l1.075,0.497l0.91-0.085l1.077-0.58l0.25-0.25h0.247l0.083,0.168l-0.33,0.332v0.66l-0.167,0.497l-0.25,0.742
		l-0.578,0.58l-0.745,1.077l-1.075,0.91l-0.826,0.25l-0.663,0.66l-1.903-0.58l-1.738-0.91l-1.158-1.24l-0.662-1.653l-0.58-2.648
		l0.166-2.646l0.993-5.299l0.58-2.398l-1.076,0.25l-2.73-0.083l-1.324-0.58l-0.58-0.496l-0.247-0.165l-0.33-0.746l-0.25-0.25
		l0.25-0.66l-0.167-0.414l0.497-0.746l1.074-0.413l2.484-1.24l2.814-0.744l1.57-0.33l0.25-0.082l1.903-4.633l1.49-2.732l0.827-1.076
		L112.48,17.294z M132.42,30.534h-0.166l-1.24,0.248l-1.656,0.83l-1.82,0.99v-3.229h0.082l3.558-1.736l1.655-0.578l1.82,0.164
		l0.415,0.411l0.248,0.663l-0.165,0.248l0.33,0.827v1.158l-0.33,0.745l-0.082,0.332l-0.083,0.33l-0.662,1.076l-0.083,0.329
		l-0.33,0.495l-0.58,0.58l-0.332,0.332l-0.826,0.99l-1.076,1.16l-0.91,0.827l-0.083,0.332l-0.58,0.25l-0.165,0.08l-0.496,0.415
		l-0.58,0.329l-0.745,0.579V35.91l1.408-0.994l1.158-1.24l0.993-1.073L132.42,30.534L132.42,30.534z M127.538,48.739v-3.724
		l0.746,0.08l0.25,0.25h3.64l2.73-0.25l2.48-0.413l1.243-0.33h0.166v0.166l-1.325,0.906l-1.24,0.66v0.25l-0.58,0.165l-0.745,0.083
		l-0.166,0.33l-1.16,0.5h-0.412l-0.167,0.328l-0.413,0.083l-0.413-0.083l-0.083,0.083h-0.58l-0.25,0.33l-1.157,0.167l-0.745,0.166
		l-1.075,0.248l-0.663-0.082l-0.082,0.083L127.538,48.739z M127.538,32.603l-0.33,0.165l-2.153,1.901l-0.99,1.158l-1.408,1.985
		h1.075l1.985-0.826l1.82-1.076v3.805l-0.744,0.578l-0.662,0.333l-0.166,0.248l-2.315,0.992l-1.16,0.166l-0.166,0.828l0.083,0.332
		l0.33,0.412l1.325,0.745l2.068,0.495l1.406,0.168v3.723h-0.992l-0.25,0.246l-0.412-0.083h-0.496l-0.25-0.083h-0.743l-0.166-0.163
		h-0.415l-0.58-0.166l-0.164-0.083l-0.082-0.167l-0.084-0.08l-0.662,0.08l-0.165-0.08l-0.33,0.08l-0.415-0.33l-0.745-0.494
		l-0.91-0.83l-0.745-0.99l-0.91-1.738l-0.084-0.66l0.083-0.248l-0.332-1.077v-0.165l-0.166-0.247l0.082-0.414V39.39l0.993-1.573
		l1.158-1.736l0.91-0.908l0.746-0.992l0.58-0.498l3.227-2.646l2.316-1.655v3.226L127.538,32.603z"/>
	<path fill="#0464B1" d="M165.684,12.745l-0.248,0.825l-0.496,0.663l-0.746,0.496l-0.828,0.5l-0.824,0.494l-0.827,0.58l-1.241,0.824
		l-1.158,0.497l-0.992,0.744l-0.743,0.58l-0.91,0.247l-0.415,0.414l-0.66,0.333l-0.58,0.166l-0.496,0.328l-0.414,0.166l-0.414,0.415
		l-0.744,0.413l-0.166,0.332l-0.908,0.658l-1.075,1.076l-0.827,0.747l-0.328,0.33l-0.746,0.744l-0.496,0.664l-0.66,0.33l-0.83,0.746
		l-0.578,1.488l-0.248,1.322l0.164,1.24l0.332,0.662l1.902,1.325l0.414,0.248l1.489,0.826l0.91,0.58l0.744,0.414l0.497,0.164
		l1.238,0.745l0.25,0.33l1.49,0.662l0.91,0.743l1.406,0.912l1.49,1.405l0.496,0.497l0.66,0.58l0.83,0.745l0.658,0.824l0.746,1.076
		l0.413,1.078l0.164,0.99l-0.08,0.827l0.08,0.663l-0.08,0.495l-0.417,1.16l-1.322,1.242l-1.404,0.659l-0.58,0.332l-0.664,0.166
		l-1.16,0.336l-1.573,0.248l-1.737,0.083l-2.233-0.082l-1.074-0.083l-1.077-0.078h-0.58l-1.486-0.25h-0.664l-0.33-0.165h-0.332
		l-0.084-0.083l-0.248,0.083l-0.247-0.248l-0.166,0.082v0.495l-0.248-0.162h-0.248l-0.33-0.497l-0.33-0.167l-0.168,0.166
		l-0.412-0.084v0.083l-0.332,0.082l-0.079-0.083l-0.334,0.082l-0.33-0.25h-0.166l-0.248-0.165l-0.164,0.166v-0.166l0.082-0.083
		l0.66-0.165l1.077-0.165l0.826-0.083l0.58-0.083l0.991-0.168l1.16-0.33l0.084-0.084l1.735-0.248l0.66-0.083l0.83-0.08l1.24-0.085
		l0.329-0.166l1.242-0.083l0.33-0.083l0.416-0.247l0.909-0.082h0.495l0.25-0.165l0.66-0.085h0.415l0.413-0.163l0.33,0.082
		l0.412-0.166l0.58-0.578h0.58l0.334-0.332l0.494-0.414l0.082-0.495l0.082-0.58l-0.25-0.332v-0.494l-0.246-0.33l-0.164-0.416
		l-0.334-0.246l-0.246-0.25l-0.58-0.412l-0.58-0.496l-0.91-0.66l-0.91-0.333l-1.24-0.745l-0.83-0.413l-0.578-0.248l-1.16-0.745
		l-0.58-0.081l-0.491-0.412h-0.25l-0.993-0.332l-0.332-0.248l-1.406-0.332l-1.738-0.497l-1.324-0.166l-0.164-0.246l-1.075-0.248
		l-0.83-0.495l-1.073-0.91l-0.83-0.58l-1.158-1.156l-0.745-0.993l-0.33-0.83l-0.248-0.91l-0.164-2.4l0.413-0.494l0.25-0.579
		l-0.083-0.66l0.496-1.162l0.58-0.66l0.496-0.91l1.324-1.49l0.825-0.906l1.24-0.912l0.993-1.076l0.91-0.828l2.316-1.82l1.16-0.744
		l1.24-1.155l1.818-1.162l0.416-0.166l0.58-0.578L155.672,12l1.82-1.242l0.58-0.742l0.33-0.083l0.414-0.495l0.58-0.25l0.496-0.578
		h0.414l0.58-0.25h0.659l1.16,0.168l1.735,0.91l0.412,1.076l0.414,0.992l0.166,0.495L165.684,12.745z M177.02,15.558l0.828-0.083
		l0.33-0.083l0.332,0.25l0.662,0.575l0.662,0.99l0.414,1.243l0.248,1.076l-0.58,2.896l-0.082,0.496l0.662,0.166l1.324,0.08
		l2.316,0.167l2.896,0.166l2.979,0.25l1.074,0.497l0.248,0.163l-0.084,0.083l-1.322,0.416l-0.91,0.494h-0.5l-0.246,0.33
		l-1.571,0.165l-0.08,0.25l-0.25,0.163l-1.075,0.083l-0.99,0.333l-2.4,0.743l-2.235,0.992l-0.826,0.412l-1.159,0.578l-0.744,1.324
		v0.83l-0.25,0.58l-0.33,0.905l-0.084,0.578l-0.084,0.332l-0.243,0.663l-0.416,1.738v0.662l-0.413,1.404l-0.166,1.159l-0.08,0.91
		l-0.165,0.248l0.164,0.165l0.163,1.573l0.084,0.165l1.072,0.498l0.914-0.084l0.994-0.58l0.33-0.248h0.248v0.166l-0.248,0.33
		l-0.084,0.662l-0.166,0.497l-0.166,0.743l-0.66,0.579l-0.746,1.075l-0.991,0.91l-0.826,0.248l-0.662,0.66l-1.985-0.577l-1.656-0.91
		l-1.239-1.24l-0.664-1.654l-0.496-2.648l0.082-2.649l1.078-5.295l0.494-2.398l-0.994,0.25l-2.812-0.084l-1.326-0.578l-0.578-0.498
		l-0.166-0.164l-0.33-0.745l-0.25-0.248l0.167-0.745l-0.085-0.332l0.498-0.743l1.076-0.414l2.398-1.242l2.895-0.745l1.49-0.33
		l0.334-0.082l1.9-4.632l1.486-2.732l0.828-1.075L177.02,15.558z M199.609,28.3l-0.414-0.083l-1.736,0.746l-2.4,1.654l-1.324,1.076
		V27.39l1.076-0.745l2.069-1.158l1.737-0.497h0.66l0.996,1.075l0.164,0.33l-0.414,1.325l1.158-1.158h0.166l0.743-0.083l1.077,0.248
		l0.248,0.33l0.414,0.58l0.165,0.246l0.248,1.406l-0.332,0.745l0.25,0.993l-1.075,3.474l-0.908,2.896v0.25l-0.58,1.24l-0.33,2.232
		l-0.084,0.83l-0.248,0.08l0.082,0.91l-0.248,0.662l0.084,0.58l-0.164,0.745l-0.084,0.578l0.332,0.33l0.248,1.407l0.416,0.578
		l0.166,0.412l0.58,0.5l0.658,0.163l0.415,0.166v0.167l-0.662,0.164l-0.247,0.248l-0.33,0.083l-0.58,0.414l-0.082,0.332h-0.248
		l-1.076-0.083l-0.662-0.332l-1.408-1.404l-0.495-0.995l-0.5-1.076v-0.33l-0.327-1.238l-0.498-2.483V39.8l0.246-1.984h-0.164v0.166
		l-1.242,1.653l-1.24,1.323l-0.163,0.415v-5.958l0.413-0.498l3.559-3.97l1.898-2.646L199.609,28.3z M193.734,31.693l-1.736,1.405
		l-1.904,2.068l-1.406,1.903l-0.826,2.15l-0.084,0.828l0.744,0.328l2.648-2.396l2.564-2.564v5.958l-0.33,0.58l-0.496,0.495
		l-0.166,0.247l-0.412,0.498l-0.994,0.825l-1.738,1.16l-1.82,0.742l-0.992-0.083l-1.736-0.579l-1.406-0.577l-0.578-0.91
		l-0.414-0.744l-0.164-1.325l0.084-1.487l0.328-1.901l0.996-2.153l0.246-0.33l0.992-1.325l2.479-2.562l3.892-3.062l2.231-1.486
		V31.693L193.734,31.693z M212.023,25.733l1.074-0.08l0.498-0.083l0.163,0.33h0.164l0.498,0.912l0.166,1.488l-0.166,0.247
		l0.166,0.165l-0.166,1.24l-0.909,2.4l-0.414,0.91l-0.332,1.323l-0.248,0.91l-0.082,0.082l-0.248,1.572v1.076l0.744-0.663
		l1.821-2.648l1.983-3.062l0.91-1.24l0.084-0.33l0.66-0.745l0.746-1.325l1.075-0.66l0.248-0.33l1.322-0.165l0.332-0.085l1.487,0.91
		l0.25,0.083l0.744,0.66l0.084,0.333l0.332,0.25l0.41,0.41l0.084,1.16l0.082,0.165l0.084,0.826l-0.166,0.913l0.082,0.988
		l-0.326,1.574v0.664l-0.332,0.497l-0.168,1.405l-0.166,0.25l-0.33,1.158l-0.164,0.826l-0.666,0.58l-0.494,1.157l-0.332,0.992
		l-0.662,1.324l-0.495,1.077l-0.248,1.322l-0.498,0.332l-0.083,0.414l-0.33,0.166l0.248,0.33l-0.414,1.49l-0.497,0.826l0.168,0.58
		h-0.25l-0.165,0.165v0.579l-0.33,1.572l-0.164,0.578l-0.412,0.91l-0.416,1.158l-0.164,0.828l-0.498,1.322l-0.414,0.166v0.497
		l-0.33,0.247l0.084,0.25l-0.332,0.58l-0.494,0.908l-0.498,0.662l-0.248,0.828l-0.992,1.074l-0.742,1.159l-0.664,0.495l-0.414,0.166
		l-0.58,0.497l-1.49,0.498h-0.33l-1.075,0.248l-0.248,0.166l-0.993,0.082l-1.078-0.416l-0.58-0.164l-0.66,0.083l-0.908-0.498
		l-0.994-0.247l-1.158-0.91l-0.824-0.743l-0.334-0.744l-0.164-0.496l0.082-0.25v-0.33l-0.164-0.662l-0.25-0.33l0.084-0.497
		l-0.084-0.25l0.166-0.412l0.248,0.496l0.082-0.25V58.58l0.334,0.166l0.164,1.325l0.246,0.083l0.332-0.166l0.578,0.413l0.166,0.333
		l1.158,0.412l3.479-0.165l1.32-0.33l1.406-0.663l0.578-0.33l0.994-0.25l0.91-0.91l0.993-1.652l0.994-3.727l0.992-6.04V45.76
		l0.166-0.991l0.082-0.746l0.082-1.322l-1.82,1.49l-0.414-0.25l-1.737,0.663l-1.404-0.163l-0.333-0.25l-1.078-0.58l-1.157-0.99
		l-0.742-1.657l-0.334-1.321l-0.248-1.656l0.166-1.735l0.328-1.74l1.572-4.218l1.82-3.312l0.99-0.99L212.023,25.733z M239.66,23.006
		l0.578-0.25h1.322l1.246,0.332l0.164,0.08v0.167l0.491,1.075l0.086,0.745l-0.25,0.578l-1.159,0.913h-0.828l-1.735,1.238
		l-1.82,1.572L236.1,31.36l-0.164,0.746l0.084,0.248l0.164,0.58l3.227,3.062l1.572,1.82l1.076,1.901v0.165l0.08,0.25l0.25,0.743
		v0.082l-0.166,0.663v0.247l-0.332,0.828l-0.66,0.498l-0.912,0.743l-2.067,0.414l-0.662,0.083l-1.653,0.33l-0.414,0.082l-0.91,0.167
		l-3.721,0.576l-3.809,0.33l-0.166-0.33l-0.496,0.083l-0.164-0.25l-0.332,0.084l-1.404,0.083l-0.498,0.083l-0.33-0.25l0.164-0.742
		l0.744-0.58l1.24-0.743l3.146-0.993l3.228-0.663l4.8-0.826l0.743-0.247l0.164-0.165l-0.825-0.992l-0.91-0.826l-0.33-0.248
		l-0.334-0.498l-1.155-0.91l-0.58-0.33v-0.166l-0.992-0.827l-0.247-0.33l-1.158-2.151l-0.33-2.234l0.33-1.736l0.498-0.995
		l1.652-1.736l1.654-1.325l1.656-0.908L239.66,23.006z"/>
	<path fill="#FFFFFF" d="M45.394,67.797c42.193-4.944,84.738-7.528,127.284-7.763h2.18c15.4,0,30.801,0.306,46.203,0.99
		c0.351,0,0.771,0,1.123,0.074c4.715,0.153,9.492,0.309,14.205,0.764c0.352,0,1.192,0.305,1.549,0.149
		c0.488-0.149,0.912-0.456,1.334-0.685c0.562,0,1.056,0.08,1.617,0.08c0.562,0.074,1.121,0.147,1.688,0.3
		c-0.425-0.454-0.916-0.836-1.408-1.14l-0.21-0.23c-1.27-0.683-2.743-1.062-4.148-1.443c-1.828-0.456-3.729-0.838-5.558-1.142
		c-2.953-0.46-5.905-0.763-8.789-1.064c-10.341-0.99-20.604-1.222-30.94-1.222c-5.558,0-11.185,0.077-16.737,0.23
		c-20.955,0.454-41.982,1.442-62.87,3.27c-17.93,1.522-35.792,3.428-53.584,5.938c-7.595,1.063-15.19,2.28-22.785,3.729
		C38.853,68.329,42.087,68.104,45.394,67.797L45.394,67.797z M50.608,6.822h0.166l0.33-0.082l0.912,0.496l1.654,1.901l0.496,0.994
		l0.58,1.654l0.577,1.904l0.084,0.166l0.248,1.818l-0.248,1.82v0.827l-0.33,2.154l-0.415,1.9l-0.083,0.415l-0.25,0.082l-0.247,0.99
		l-0.165,0.58l-0.083,0.994l-0.497,0.414l-0.082,0.662l-0.414,0.991l-0.33,0.827l0.08,0.33l-0.164,0.497l-0.58,0.743l-0.082,1.076
		l-0.33,0.582l-0.332,0.99l0.083,0.58l-0.414,0.247l-0.166,0.497l-0.496,0.826h-0.079l-0.248,0.414l0.083,0.332L49.7,35.701
		l0.166,0.744l-0.496,0.912l-0.083,0.166l-0.166,0.495l-0.33,1.074l-0.167,1.158v1.075l-0.163,0.91l0.248,0.994l0.413,0.909
		l0.745,0.332h3.641l0.994-0.247l1.573-0.166h1.24l0.25,0.247l1.074,0.083l1.738-0.164l0.248-0.166h1.076l0.745,0.083l0.58-0.332
		l0.58-0.165l6.7,0.661l1.49,0.329l1.738,0.169l1.325,0.162l-0.084,0.25l-0.663,0.414h-0.165l-0.166,0.25l-0.662,0.247l-0.745,0.082
		l-0.91,0.332l-0.496,0.497l-1.16,0.413l-1.075,0.414l-0.993,0.58l-0.332,0.083l-0.58,0.25l-1.654,0.412l-0.578-0.083l-0.58,0.33
		h-0.58l-0.496,0.332h-1.323l-0.91,0.248l-3.144,0.329l-3.808,0.247h-1.49l-1.075-0.162l-1.324-0.165l-1.737-0.498l-1.573-0.744
		l-0.745-0.58l-0.165-0.25l-0.415-0.412l-0.248-0.83l-0.164-0.166l-0.662-1.487l-0.25-0.25l-0.082-0.576l-0.247-0.662l-0.084-0.496
		l-0.082-1.076l-0.083-0.248l0.083-0.663l-0.165-1.157l0.165-3.725l0.083-0.412l0.332-2.152l0.083-1.57l0.083-0.33l0.497-3.229
		v-0.166l0.248-1.568l0.662-3.147l0.082-0.248l0.083-0.662l0.166-0.66l0.66-3.06l0.58-2.982l0.25-0.33l0.082-0.744l0.828-2.233
		l0.248-0.993l0.413-1.574l0.166-0.164l0.165-1.159l0.083-0.165l0.167-0.742l0.66,0.247L49.869,7.65l0.084-0.166l0.412,0.248
		l0.247-0.082L50.608,6.822z M91.981,29.744l-0.413-0.084l-1.737,0.66l-2.4,1.658l-1.324,1.072v-4.218l1.075-0.745l2.07-1.157
		l1.737-0.495h0.745l0.91,0.99l0.166,0.414l-0.415,1.324l1.16-1.16h0.165l0.745-0.08l1.076,0.247l0.33,0.33l0.332,0.497l0.248,0.33
		l0.166,1.41l-0.25,0.743l0.167,0.993l-1.076,3.474l-0.91,2.896v0.248l-0.58,1.24l-0.33,2.153l-0.084,0.91l-0.248,0.084l0.083,0.909
		l-0.25,0.659l0.083,0.58l-0.164,0.745v0.58l0.25,0.33l0.247,1.407l0.414,0.578l0.166,0.415l0.58,0.496l0.66,0.163l0.498,0.084
		v0.164l-0.744,0.25l-0.25,0.247h-0.248l-0.663,0.498l-0.082,0.33h-0.25l-0.992-0.083l-0.663-0.325l-1.49-1.408l-0.496-0.99
		l-0.496-1.077v-0.33l-0.332-1.24L88.67,43.98l0.082-2.73l0.166-1.985h-0.166v0.166l-1.242,1.654l-1.16,1.323l-0.246,0.33v-5.962
		l0.413-0.415l3.56-3.973L91.981,29.744L91.981,29.744z M86.107,33.052l-1.74,1.41l-1.9,2.15l-1.408,1.819l-0.828,2.231v0.746
		l0.66,0.414l2.65-2.4l2.565-2.646v5.957l-0.332,0.58l-0.496,0.578l-0.166,0.25l-0.413,0.412l-0.992,0.909l-1.738,1.158l-1.82,0.743
		l-0.91-0.082l-1.82-0.58l-1.408-0.66l-0.58-0.83l-0.414-0.742l-0.165-1.324l0.166-1.488l0.25-1.903l0.992-2.151l0.248-0.33
		l0.994-1.325l2.482-2.564l3.972-3.062l2.15-1.487v4.215L86.107,33.052z M111.511,15.841l0.827-0.083l0.33-0.079l0.413,0.246
		l0.58,0.58l0.745,0.992l0.413,1.24l0.166,1.078l-0.58,2.895v0.497l0.663,0.166l1.323,0.083l2.318,0.162l2.813,0.166l2.98,0.25
		l1.158,0.496l0.166,0.166l-0.083,0.163l-1.24,0.333l-0.91,0.495h-0.497l-0.25,0.334l-1.57,0.164l-0.083,0.25l-0.25,0.163
		l-1.156,0.083l-0.91,0.332l-2.484,0.825l-2.233,0.91l-0.828,0.496l-1.076,0.497l-0.745,1.324l-0.083,0.828l-0.25,0.58l-0.33,0.908
		v0.58l-0.083,0.328l-0.33,0.665l-0.332,1.737l-0.083,0.663l-0.33,1.406l-0.25,1.157v0.91l-0.164,0.248l0.08,0.165l0.167,1.573
		l0.083,0.167l1.075,0.497l0.91-0.085l1.077-0.58l0.25-0.25h0.247l0.083,0.168l-0.33,0.332v0.66l-0.167,0.498l-0.25,0.741
		l-0.578,0.58l-0.745,1.077l-1.075,0.91l-0.826,0.25l-0.663,0.66l-1.903-0.58l-1.738-0.91l-1.158-1.24l-0.662-1.653l-0.58-2.648
		l0.166-2.646l0.993-5.3l0.58-2.398l-1.076,0.25l-2.73-0.083l-1.324-0.58l-0.58-0.496l-0.247-0.165l-0.33-0.746l-0.25-0.25
		l0.25-0.66l-0.167-0.414l0.497-0.746l1.074-0.412l2.484-1.241l2.814-0.744l1.57-0.33l0.25-0.082l1.903-4.633l1.49-2.732
		l0.827-1.076L111.511,15.841z M131.451,29.081h-0.166l-1.24,0.248l-1.656,0.83l-1.82,0.99v-3.229h0.082l3.558-1.736l1.655-0.578
		l1.82,0.164l0.415,0.412l0.248,0.663l-0.165,0.247l0.33,0.827v1.158l-0.33,0.745l-0.082,0.332l-0.083,0.33l-0.662,1.076
		l-0.083,0.33l-0.33,0.494l-0.58,0.58L132.03,33.3l-0.826,0.99l-1.076,1.16l-0.91,0.827l-0.083,0.332l-0.58,0.25l-0.165,0.08
		l-0.496,0.415l-0.58,0.33l-0.745,0.579v-3.808l1.408-0.994l1.158-1.239l0.993-1.074L131.451,29.081L131.451,29.081z
		 M126.569,47.286v-3.724l0.746,0.08l0.25,0.25h3.64l2.73-0.25l2.48-0.413l1.243-0.33h0.166v0.166l-1.325,0.907l-1.24,0.659v0.25
		l-0.58,0.165l-0.745,0.083l-0.166,0.33l-1.16,0.5h-0.412l-0.167,0.328l-0.413,0.083l-0.413-0.083l-0.083,0.083h-0.58l-0.25,0.33
		l-1.157,0.167l-0.745,0.166l-1.075,0.248L126.65,47.2l-0.082,0.083L126.569,47.286z M126.569,31.15l-0.33,0.165l-2.153,1.901
		l-0.99,1.158l-1.408,1.985h1.075l1.985-0.826l1.82-1.076v3.806l-0.744,0.577l-0.662,0.333l-0.166,0.248l-2.315,0.992l-1.16,0.166
		l-0.166,0.828l0.083,0.332l0.33,0.412l1.325,0.745l2.068,0.495l1.406,0.168v3.723h-0.992l-0.25,0.246l-0.412-0.083h-0.496
		l-0.25-0.083h-0.743l-0.166-0.163h-0.415l-0.58-0.166l-0.164-0.083l-0.082-0.167l-0.084-0.08l-0.662,0.08l-0.165-0.08l-0.33,0.08
		l-0.415-0.33l-0.745-0.494l-0.91-0.83l-0.745-0.989l-0.91-1.739l-0.084-0.66l0.083-0.248l-0.332-1.077v-0.165l-0.166-0.247
		l0.082-0.414v-1.651l0.993-1.573l1.158-1.736l0.91-0.907l0.746-0.993l0.58-0.498l3.227-2.646l2.316-1.654v3.225L126.569,31.15z"/>
	<path fill="#BCD146" d="M164.715,11.292l-0.248,0.825l-0.496,0.663l-0.746,0.496l-0.828,0.5l-0.824,0.494l-0.827,0.58l-1.242,0.824
		l-1.157,0.497l-0.992,0.744l-0.744,0.58l-0.909,0.247l-0.415,0.414l-0.66,0.333l-0.58,0.166l-0.496,0.328l-0.414,0.166
		l-0.414,0.415l-0.744,0.413l-0.166,0.332l-0.908,0.658l-1.075,1.076L149,22.792l-0.329,0.33l-0.746,0.744l-0.495,0.664l-0.66,0.33
		l-0.83,0.746l-0.578,1.489l-0.248,1.321l0.164,1.24l0.332,0.662l1.901,1.325l0.414,0.248l1.49,0.826l0.91,0.58l0.743,0.414
		l0.498,0.164l1.238,0.745l0.25,0.33l1.49,0.662l0.91,0.743l1.406,0.912l1.49,1.405l0.496,0.497l0.659,0.58l0.83,0.745l0.659,0.824
		l0.746,1.076l0.412,1.078l0.164,0.99l-0.08,0.827l0.08,0.663l-0.08,0.495l-0.416,1.16l-1.322,1.242l-1.404,0.66l-0.58,0.332
		l-0.664,0.166l-1.158,0.328l-1.573,0.248l-1.737,0.083l-2.234-0.082l-1.073-0.083l-1.077-0.079h-0.58l-1.486-0.25h-0.664
		l-0.33-0.164h-0.332l-0.084-0.083l-0.248,0.083l-0.248-0.248l-0.166,0.082v0.495l-0.248-0.162h-0.248l-0.329-0.497l-0.33-0.167
		l-0.168,0.166l-0.412-0.084v0.083l-0.332,0.082l-0.08-0.083l-0.334,0.082l-0.329-0.25h-0.166l-0.248-0.165l-0.164,0.166v-0.166
		l0.082-0.083l0.659-0.165l1.078-0.165l0.826-0.083l0.579-0.083l0.992-0.168l1.16-0.33l0.084-0.084l1.735-0.248l0.66-0.083
		l0.83-0.08l1.239-0.085l0.33-0.166l1.242-0.083l0.33-0.083l0.416-0.247l0.909-0.082h0.495l0.25-0.165l0.66-0.085h0.414l0.414-0.163
		l0.33,0.082l0.412-0.166l0.58-0.578h0.579l0.334-0.332l0.494-0.414l0.082-0.495l0.083-0.58l-0.25-0.332V43.31l-0.247-0.33
		l-0.164-0.416l-0.334-0.246l-0.246-0.25l-0.579-0.412l-0.58-0.496l-0.91-0.66l-0.91-0.333l-1.24-0.745l-0.83-0.413l-0.578-0.247
		l-1.16-0.746l-0.58-0.081l-0.492-0.412h-0.25l-0.992-0.332l-0.332-0.248l-1.406-0.332l-1.738-0.497l-1.324-0.166l-0.164-0.246
		l-1.075-0.248l-0.83-0.495l-1.073-0.91l-0.83-0.58l-1.158-1.156l-0.744-0.993l-0.331-0.83l-0.248-0.91l-0.164-2.399l0.413-0.495
		l0.25-0.579l-0.083-0.66l0.496-1.162l0.58-0.66l0.496-0.91l1.324-1.489l0.825-0.907l1.24-0.912l0.992-1.076l0.91-0.828l2.317-1.819
		l1.16-0.745l1.239-1.155l1.819-1.162l0.416-0.166l0.58-0.578l1.738-1.321l1.819-1.241l0.58-0.743l0.33-0.083l0.414-0.495l0.58-0.25
		l0.496-0.578h0.414l0.58-0.25h0.66l1.16,0.168l1.736,0.91l0.412,1.076l0.413,0.993l0.166,0.495L164.715,11.292z M176.051,14.105
		l0.828-0.083l0.33-0.083l0.332,0.25l0.662,0.576l0.662,0.989l0.414,1.243l0.248,1.076l-0.58,2.896l-0.082,0.495l0.662,0.166
		l1.324,0.08l2.315,0.167l2.896,0.166l2.98,0.25l1.074,0.497l0.248,0.163l-0.084,0.083l-1.322,0.416l-0.91,0.494h-0.5l-0.246,0.33
		l-1.572,0.165l-0.08,0.25l-0.25,0.163l-1.074,0.083l-0.991,0.333l-2.399,0.744L178.7,27.01l-0.826,0.412L176.715,28l-0.744,1.324
		v0.83l-0.25,0.58l-0.33,0.906l-0.084,0.577l-0.084,0.332l-0.244,0.663l-0.416,1.738v0.662l-0.412,1.405l-0.166,1.158l-0.08,0.91
		l-0.166,0.248l0.164,0.165l0.164,1.573l0.084,0.165l1.072,0.498l0.914-0.084l0.994-0.58l0.33-0.248h0.248v0.166l-0.248,0.33
		l-0.084,0.662l-0.166,0.497l-0.166,0.744l-0.66,0.578l-0.746,1.075l-0.992,0.91l-0.826,0.248l-0.661,0.66l-1.986-0.577l-1.655-0.91
		l-1.24-1.24l-0.664-1.654l-0.495-2.648l0.082-2.648l1.077-5.295l0.494-2.399l-0.994,0.25l-2.812-0.084l-1.325-0.578l-0.578-0.498
		l-0.166-0.164l-0.33-0.745l-0.25-0.248l0.166-0.745l-0.084-0.331l0.498-0.743l1.076-0.415l2.398-1.242l2.895-0.745l1.489-0.33
		l0.334-0.082l1.901-4.632l1.486-2.732l0.828-1.074L176.051,14.105z M198.641,26.846l-0.414-0.083l-1.735,0.745l-2.4,1.654
		l-1.323,1.076v-4.303l1.075-0.745l2.069-1.158l1.736-0.497h0.66l0.996,1.075l0.164,0.33l-0.414,1.325l1.158-1.158h0.166
		l0.744-0.083l1.077,0.248l0.248,0.33l0.413,0.58l0.166,0.247l0.248,1.405l-0.332,0.745l0.25,0.993l-1.075,3.474l-0.909,2.896v0.25
		l-0.58,1.24l-0.33,2.232l-0.084,0.83l-0.248,0.08l0.082,0.91l-0.248,0.662l0.084,0.58l-0.164,0.745l-0.084,0.579l0.332,0.329
		l0.248,1.407l0.416,0.578l0.166,0.412l0.58,0.5l0.659,0.163l0.415,0.166v0.167l-0.662,0.164l-0.248,0.248l-0.33,0.083l-0.58,0.414
		l-0.082,0.332h-0.248l-1.076-0.083l-0.662-0.332l-1.407-1.404l-0.495-0.995l-0.5-1.076v-0.33l-0.327-1.238l-0.498-2.483v-2.731
		l0.246-1.984h-0.164v0.166l-1.242,1.654l-1.239,1.322l-0.164,0.415v-5.958l0.414-0.498l3.558-3.97l1.899-2.646L198.641,26.846z
		 M192.766,30.24l-1.736,1.405l-1.903,2.068l-1.405,1.903l-0.826,2.15l-0.084,0.829l0.744,0.327l2.647-2.396l2.563-2.564v5.958
		l-0.33,0.58l-0.496,0.495l-0.166,0.247l-0.412,0.498l-0.993,0.825l-1.738,1.16l-1.819,0.742l-0.994-0.082l-1.735-0.579
		l-1.407-0.578l-0.578-0.91l-0.414-0.744l-0.164-1.325l0.084-1.486l0.328-1.902l0.996-2.153l0.246-0.33l0.993-1.324l2.479-2.563
		l3.891-3.061l2.232-1.487v4.298H192.766z M211.055,24.28l1.074-0.08l0.498-0.083l0.164,0.33h0.164l0.498,0.912l0.166,1.489
		l-0.166,0.247l0.166,0.164l-0.166,1.24l-0.91,2.4l-0.414,0.91l-0.332,1.323l-0.248,0.91l-0.082,0.082l-0.248,1.572v1.076
		l0.744-0.663l1.822-2.648l1.984-3.062l0.91-1.24l0.084-0.33l0.659-0.745l0.746-1.324l1.075-0.661l0.248-0.33l1.322-0.165
		l0.332-0.085l1.486,0.911l0.25,0.083l0.744,0.659l0.084,0.333l0.332,0.25l0.411,0.41l0.084,1.16l0.082,0.165l0.084,0.826
		l-0.166,0.913l0.082,0.989l-0.327,1.573v0.664l-0.332,0.497l-0.168,1.405l-0.166,0.25l-0.33,1.158l-0.164,0.827l-0.666,0.579
		l-0.494,1.157l-0.332,0.992l-0.662,1.324l-0.494,1.077l-0.248,1.322l-0.498,0.332l-0.084,0.414l-0.329,0.166l0.248,0.33
		l-0.414,1.49l-0.497,0.826l0.168,0.58h-0.25l-0.165,0.165v0.58l-0.33,1.571l-0.164,0.578l-0.412,0.91l-0.416,1.158l-0.163,0.828
		l-0.498,1.322l-0.414,0.166v0.497l-0.332,0.247l0.084,0.25l-0.332,0.58l-0.494,0.908l-0.498,0.662l-0.247,0.828l-0.992,1.075
		l-0.743,1.158l-0.664,0.495l-0.414,0.166l-0.58,0.497l-1.49,0.498h-0.33l-1.074,0.248l-0.248,0.166l-0.993,0.082l-1.078-0.416
		l-0.579-0.164l-0.66,0.083l-0.91-0.498l-0.993-0.247l-1.158-0.91l-0.825-0.742l-0.334-0.745l-0.164-0.496l0.082-0.25v-0.33
		l-0.164-0.662l-0.25-0.33l0.084-0.497l-0.084-0.25l0.166-0.412l0.248,0.496l0.082-0.25v-1.076l0.334,0.166l0.164,1.325l0.247,0.083
		l0.332-0.166l0.578,0.413l0.166,0.333l1.157,0.412l3.479-0.165l1.321-0.33l1.405-0.663l0.58-0.33l0.994-0.25l0.909-0.91
		l0.993-1.652l0.994-3.727l0.992-6.04v-1.325l0.166-0.991l0.082-0.746l0.082-1.322l-1.82,1.49l-0.414-0.25l-1.736,0.663
		l-1.406-0.163l-0.332-0.25l-1.078-0.58l-1.157-0.99l-0.743-1.657l-0.334-1.321l-0.248-1.656l0.166-1.735l0.329-1.74l1.571-4.218
		l1.822-3.312l0.989-0.99L211.055,24.28z M238.691,21.552l0.578-0.25h1.321l1.246,0.332l0.164,0.08v0.167l0.492,1.075l0.086,0.745
		l-0.25,0.578l-1.16,0.913h-0.828l-1.735,1.239l-1.819,1.571l-1.655,1.902l-0.164,0.746l0.084,0.248l0.164,0.58l3.227,3.062
		l1.572,1.82l1.076,1.902v0.165l0.08,0.25l0.25,0.742v0.082l-0.166,0.663v0.247l-0.332,0.828l-0.66,0.498l-0.912,0.743l-2.067,0.414
		l-0.662,0.083l-1.654,0.33l-0.414,0.082l-0.909,0.167l-3.722,0.576l-3.808,0.33l-0.166-0.33l-0.496,0.083l-0.164-0.25l-0.332,0.084
		l-1.405,0.083l-0.498,0.083l-0.329-0.25l0.163-0.742l0.744-0.58l1.241-0.743l3.146-0.993l3.228-0.663l4.8-0.826l0.743-0.247
		l0.164-0.165l-0.826-0.992l-0.909-0.826l-0.33-0.248l-0.334-0.498l-1.156-0.91l-0.58-0.33v-0.166l-0.991-0.827l-0.247-0.33
		l-1.158-2.151l-0.331-2.234l0.331-1.736l0.498-0.994l1.652-1.737l1.654-1.325l1.656-0.908L238.691,21.552z"/>
	<text transform="matrix(1 0 0 1 220.5 17.3645)" fill="#FFFFFF" font-family="'MyriadPro-Regular'" font-size="12">Beta</text>
</g>
</svg>
