<?xml version="1.0" encoding="utf-8"?>
<!-- Generator: Adobe Illustrator 16.0.4, SVG Export Plug-In . SVG Version: 6.00 Build 0)  -->
<!DOCTYPE svg PUBLIC "-//W3C//DTD SVG 1.1//EN" "http://www.w3.org/Graphics/SVG/1.1/DTD/svg11.dtd">
<svg version="1.1" id="Capa_1" xmlns="http://www.w3.org/2000/svg" xmlns:xlink="http://www.w3.org/1999/xlink" x="0px" y="0px"
	 width="143px" height="100px" viewBox="-4.5 -3.5 143 100" enable-background="new -4.5 -3.5 143 100" xml:space="preserve">
<g>
	<path fill="#006AC7" d="M56.573,67.251c-2.159-0.343-2.208-6.281-2.208-6.281s6.345-6.281,7.728-14.727
		c3.72,0,6.017-8.979,2.297-12.138C64.544,30.78,69.17,8,45.75,8S26.956,30.78,27.111,34.106c-3.72,3.159-1.423,12.138,2.297,12.138
		c1.382,8.446,7.727,14.727,7.727,14.727s-0.049,5.938-2.208,6.281C27.972,68.358,2,79.813,2,92.375h43.75H89.5
		C89.5,79.813,63.528,68.358,56.573,67.251z"/>
</g>
<g opacity="0.6">
	<path fill="#006AC7" d="M106.268,53.969c-1.815-0.29-1.856-5.28-1.856-5.28s5.333-5.279,6.496-12.378
		c3.125,0,5.058-7.547,1.931-10.203c0.131-2.795,4.019-21.942-15.667-21.942c-19.686,0-15.797,19.147-15.667,21.942
		c-3.126,2.656-1.196,10.203,1.931,10.203c1.162,7.099,6.495,12.378,6.495,12.378s-0.042,4.99-1.856,5.28
		c-3.456,0.549-12.499,4.14-19.314,9.164c8.097,3.959,19.419,11.952,19.419,11.952h8.992h36.771
		C133.942,64.527,112.112,54.898,106.268,53.969z"/>
</g>
</svg>
